<svg width="394" height="784" xmlns="http://www.w3.org/2000/svg" xmlns:xlink="http://www.w3.org/1999/xlink" xml:space="preserve" overflow="hidden"><defs><clipPath id="clip0"><rect x="1902" y="586" width="394" height="784"/></clipPath></defs><g clip-path="url(#clip0)" transform="translate(-1902 -586)"><path d="M1903 784C1903 676.304 1990.3 589 2098 589 2205.7 589 2293 676.304 2293 784 2293 891.695 2205.7 979 2098 979 1990.3 979 1903 891.695 1903 784Z" fill="#000000" fill-rule="evenodd" fill-opacity="1"/><rect x="1903" y="784" width="390" height="390" fill="#000000" fill-opacity="1"/><path d="M1903 1174C1903 1066.3 1990.3 979 2098 979 2205.7 979 2293 1066.3 2293 1174 2293 1281.7 2205.7 1369 2098 1369 1990.3 1369 1903 1281.7 1903 1174Z" fill="#000000" fill-rule="evenodd" fill-opacity="1"/><path d="M2005 779.5C2005 725.652 2048.65 682 2102.5 682 2156.35 682 2200 725.652 2200 779.5 2200 833.348 2156.35 877 2102.5 877 2048.65 877 2005 833.348 2005 779.5Z" fill="#7F7F7F" fill-rule="evenodd" fill-opacity="1"/><path d="M2005 1169.5C2005 1115.65 2048.65 1072 2102.5 1072 2156.35 1072 2200 1115.65 2200 1169.5 2200 1223.35 2156.35 1267 2102.5 1267 2048.65 1267 2005 1223.35 2005 1169.5Z" fill="#00B0F0" fill-rule="evenodd" fill-opacity="1"/></g></svg>