<svg width="394" height="779" xmlns="http://www.w3.org/2000/svg" xmlns:xlink="http://www.w3.org/1999/xlink" xml:space="preserve" overflow="hidden"><defs><clipPath id="clip0"><rect x="907" y="715" width="394" height="779"/></clipPath></defs><g clip-path="url(#clip0)" transform="translate(-907 -715)"><path d="M909 909.5C909 802.081 996.304 715 1104 715 1211.7 715 1299 802.081 1299 909.5 1299 1016.92 1211.7 1104 1104 1104 996.304 1104 909 1016.92 909 909.5Z" fill="#000000" fill-rule="evenodd" fill-opacity="1"/><rect x="909" y="909" width="390" height="390" fill="#000000" fill-opacity="1"/><path d="M909 1299C909 1191.3 996.304 1104 1104 1104 1211.7 1104 1299 1191.3 1299 1299 1299 1406.7 1211.7 1494 1104 1494 996.304 1494 909 1406.7 909 1299Z" fill="#000000" fill-rule="evenodd" fill-opacity="1"/><path d="M1007 909.5C1007 855.652 1050.65 812 1104.5 812 1158.35 812 1202 855.652 1202 909.5 1202 963.348 1158.35 1007 1104.5 1007 1050.65 1007 1007 963.348 1007 909.5Z" fill="#FF0000" fill-rule="evenodd" fill-opacity="1"/><path d="M1007 1288.5C1007 1234.65 1050.65 1191 1104.5 1191 1158.35 1191 1202 1234.65 1202 1288.5 1202 1342.35 1158.35 1386 1104.5 1386 1050.65 1386 1007 1342.35 1007 1288.5Z" fill="#7F7F7F" fill-rule="evenodd" fill-opacity="1"/></g></svg>